# xmcd
#
# Track frame offsets:
#	150
#	28940
#	42567
#	56555
#	81509
#	93120
#	112664
#	129980
#
# Disc length: 2221 seconds
# Revision: 0
# Processed by: cddbd v1.5.2PL0 Copyright (c) Steve Scherf et al.
# Submitted via: dBpowerAMP V12.0
#
DISCID=6108ab08
DTITLE=The Siegel–Schwall Band - Siegel–Schwall `70
DYEAR=1970
DGENRE=Blues Rock
TTITLE0=I Don't Want You To Be My Girl
TTITLE1=Do You Remember
TTITLE2=Geromino
TTITLE3=Angel Food Cake
TTITLE4=Walk In My Mind
TTITLE5=Song
TTITLE6=Tell Me
TTITLE7=A Sunshine Day In My Mind
EXTD=
EXTT0=
EXTT1=
EXTT2=
EXTT3=
EXTT4=
EXTT5=
EXTT6=
EXTT7=
PLAYORDER=
